<svg viewBox="0 0 800 460" xmlns="http://www.w3.org/2000/svg" role="img" aria-label="HeartSuccess pharmacy savings preview">
  <defs>
    <linearGradient id="hsBg" x1="0" y1="0" x2="1" y2="1">
      <stop offset="0" stop-color="#eef4ff"/><stop offset="1" stop-color="#dbe7ff"/>
    </linearGradient>
  </defs>
  <rect width="800" height="460" fill="url(#hsBg)"/>
  <circle cx="34" cy="34" r="6" fill="#f87171"/><circle cx="56" cy="34" r="6" fill="#fbbf24"/><circle cx="78" cy="34" r="6" fill="#34d399"/>
  <path d="M120 28c-6-7-18-3-18 6 0 7 11 13 18 19 7-6 18-12 18-19 0-9-12-13-18-6z" fill="#3b82f6"/>
  <text x="150" y="40" font-family="Inter,system-ui,sans-serif" font-size="18" font-weight="800" fill="#1e3a8a">HeartSuccess</text>
  <text x="400" y="92" font-family="Inter,system-ui,sans-serif" font-size="26" font-weight="800" fill="#0f172a" text-anchor="middle">Other Savings By Pharmacy</text>
  <!-- three price cards -->
  <g font-family="Inter,system-ui,sans-serif">
    <rect x="46" y="130" width="220" height="270" rx="20" fill="#ffffff"/>
    <rect x="290" y="130" width="220" height="270" rx="20" fill="#ffffff"/>
    <rect x="534" y="130" width="220" height="270" rx="20" fill="#ffffff"/>
    <text x="70" y="172" font-size="13" fill="#64748b">Optichamber Diamond</text>
    <text x="314" y="172" font-size="13" fill="#64748b">Optichamber Diamond</text>
    <text x="558" y="172" font-size="13" fill="#64748b">Optichamber Diamond</text>
    <text x="156" y="248" font-size="46" font-weight="800" fill="#0f172a" text-anchor="middle">37.35</text>
    <text x="400" y="248" font-size="46" font-weight="800" fill="#0f172a" text-anchor="middle">39.30</text>
    <text x="644" y="248" font-size="46" font-weight="800" fill="#0f172a" text-anchor="middle">43.69</text>
    <text x="156" y="284" font-size="14" fill="#475569" text-anchor="middle">with AxeRx</text>
    <text x="400" y="284" font-size="14" fill="#475569" text-anchor="middle">with SingleCare</text>
    <text x="644" y="284" font-size="14" fill="#475569" text-anchor="middle">with Paramount</text>
    <rect x="70" y="320" width="172" height="48" rx="10" fill="#2563eb"/>
    <rect x="314" y="320" width="172" height="48" rx="10" fill="#2563eb"/>
    <rect x="558" y="320" width="172" height="48" rx="10" fill="#2563eb"/>
    <text x="156" y="350" font-size="14" font-weight="700" fill="#fff" text-anchor="middle">Get free coupon</text>
    <text x="400" y="350" font-size="14" font-weight="700" fill="#fff" text-anchor="middle">Get free coupon</text>
    <text x="644" y="350" font-size="14" font-weight="700" fill="#fff" text-anchor="middle">Get free coupon</text>
  </g>
</svg>
