<svg viewBox="0 0 800 460" xmlns="http://www.w3.org/2000/svg" role="img" aria-label="Matrix Rental applications preview">
  <rect width="800" height="460" fill="#f8fafc"/>
  <circle cx="34" cy="34" r="6" fill="#f87171"/><circle cx="56" cy="34" r="6" fill="#fbbf24"/><circle cx="78" cy="34" r="6" fill="#34d399"/>
  <text x="120" y="40" font-family="Inter,system-ui,sans-serif" font-size="18" font-weight="800" fill="#0f172a">Applications</text>
  <!-- status tabs -->
  <rect x="120" y="62" width="92" height="30" rx="15" fill="#f59e0b"/>
  <text x="166" y="82" font-family="Inter,system-ui,sans-serif" font-size="13" font-weight="700" fill="#fff" text-anchor="middle">Pending</text>
  <g font-family="Inter,system-ui,sans-serif" font-size="13" fill="#94a3b8">
    <text x="236" y="82">Accepted</text><text x="330" y="82">Rejected</text><text x="424" y="82">All</text>
  </g>
  <!-- list rows -->
  <g>
    <rect x="34" y="110" width="732" height="100" rx="14" fill="#ffffff"/>
    <rect x="34" y="222" width="732" height="100" rx="14" fill="#ffffff"/>
    <rect x="34" y="334" width="732" height="100" rx="14" fill="#ffffff"/>
    <rect x="54" y="128" width="96" height="64" rx="10" fill="#cbd5e1"/>
    <rect x="54" y="240" width="96" height="64" rx="10" fill="#cbd5e1"/>
    <rect x="54" y="352" width="96" height="64" rx="10" fill="#cbd5e1"/>
    <g font-family="Inter,system-ui,sans-serif">
      <text x="172" y="150" font-size="12" fill="#94a3b8">Date applied: 06/17/2026</text>
      <text x="172" y="178" font-size="18" font-weight="800" fill="#0f172a">Prospect Park Unit 1</text>
      <text x="172" y="262" font-size="12" fill="#94a3b8">Date applied: 06/17/2026</text>
      <text x="172" y="290" font-size="18" font-weight="800" fill="#0f172a">Unit 1 — East Hartford, CT</text>
      <text x="172" y="374" font-size="12" fill="#94a3b8">Date applied: 06/05/2026</text>
      <text x="172" y="402" font-size="18" font-weight="800" fill="#0f172a">Unit 1 — New York, NY</text>
    </g>
    <g>
      <rect x="636" y="132" width="100" height="28" rx="14" fill="#dbeafe"/><text x="686" y="151" font-family="Inter,system-ui,sans-serif" font-size="12" font-weight="700" fill="#2563eb" text-anchor="middle">PENDING</text>
      <rect x="636" y="244" width="100" height="28" rx="14" fill="#dbeafe"/><text x="686" y="263" font-family="Inter,system-ui,sans-serif" font-size="12" font-weight="700" fill="#2563eb" text-anchor="middle">PENDING</text>
      <rect x="636" y="356" width="100" height="28" rx="14" fill="#dbeafe"/><text x="686" y="375" font-family="Inter,system-ui,sans-serif" font-size="12" font-weight="700" fill="#2563eb" text-anchor="middle">PENDING</text>
    </g>
  </g>
</svg>
