<svg viewBox="0 0 800 460" xmlns="http://www.w3.org/2000/svg" role="img" aria-label="Portia legal workspace preview">
  <defs>
    <linearGradient id="poBg" x1="0" y1="0" x2="1" y2="1">
      <stop offset="0" stop-color="#0b1220"/><stop offset=".5" stop-color="#111c33"/><stop offset="1" stop-color="#16213e"/>
    </linearGradient>
  </defs>
  <rect width="800" height="460" fill="url(#poBg)"/>
  <circle cx="34" cy="34" r="6" fill="#f87171"/><circle cx="56" cy="34" r="6" fill="#fbbf24"/><circle cx="78" cy="34" r="6" fill="#34d399"/>
  <text x="120" y="40" font-family="Inter,system-ui,sans-serif" font-size="20" font-weight="800" fill="#fff">Portia<tspan fill="#6366f1"> · Client Dashboard</tspan></text>
  <text x="34" y="112" font-family="Inter,system-ui,sans-serif" font-size="34" font-weight="800" fill="#fff">Welcome to <tspan fill="#6366f1">Portia</tspan></text>
  <text x="34" y="146" font-family="Inter,system-ui,sans-serif" font-size="14" fill="#94a3b8">Your AI-powered legal assistant — manage clients &amp; matters.</text>
  <!-- feature cards -->
  <g>
    <rect x="34" y="180" width="176" height="170" rx="16" fill="#ffffff" opacity=".05" stroke="#ffffff" stroke-opacity=".08"/>
    <rect x="222" y="180" width="176" height="170" rx="16" fill="#ffffff" opacity=".05" stroke="#ffffff" stroke-opacity=".08"/>
    <rect x="410" y="180" width="176" height="170" rx="16" fill="#ffffff" opacity=".05" stroke="#ffffff" stroke-opacity=".08"/>
    <rect x="598" y="180" width="168" height="170" rx="16" fill="#ffffff" opacity=".05" stroke="#ffffff" stroke-opacity=".08"/>
    <g>
      <rect x="58" y="204" width="44" height="44" rx="12" fill="#6366f1" opacity=".25"/>
      <rect x="246" y="204" width="44" height="44" rx="12" fill="#6366f1" opacity=".25"/>
      <rect x="434" y="204" width="44" height="44" rx="12" fill="#6366f1" opacity=".25"/>
      <rect x="622" y="204" width="44" height="44" rx="12" fill="#6366f1" opacity=".25"/>
    </g>
    <g font-family="Inter,system-ui,sans-serif" fill="#e2e8f0" font-size="14" font-weight="700">
      <text x="58" y="286">Smart Mgmt</text><text x="246" y="286">Matter Track</text><text x="434" y="286">AI Insights</text><text x="622" y="286">Onboarding</text>
    </g>
    <g font-family="Inter,system-ui,sans-serif" fill="#64748b" font-size="11">
      <text x="58" y="312">Organize clients</text><text x="246" y="312">Deadlines auto</text><text x="434" y="312">Recommendations</text><text x="622" y="312">Add clients fast</text>
    </g>
  </g>
  <rect x="320" y="384" width="160" height="44" rx="22" fill="#4f46e5"/>
  <text x="400" y="411" font-family="Inter,system-ui,sans-serif" font-size="14" font-weight="700" fill="#fff" text-anchor="middle">+ Add Client</text>
</svg>
